{"title":"The.Navigator.2014.Screener","uid":11510431,"size":1028935612,"categoryP":"video","categoryS":"movies","magnet":"?xt=urn:btih:9c91eb81ebe4b418df8ef7f906b20dc8f1b9cd73&amp;dn=The.Navigator.2014.Screener&amp;tr=udp%3A%2F%2Ftracker.openbittorrent.com%3A80&amp;tr=udp%3A%2F%2Fopen.demonii.com%3A1337&amp;tr=udp%3A%2F%2Ftracker.coppersurfer.tk%3A6969&amp;tr=udp%3A%2F%2Fexodus.desync.com%3A6969","seeders":0,"leechers":0,"uploader":"martinmcmillan","files":1,"time":1416397838,"description":"Format                         : AVI\nFormat/Info                    : Audio Video Interleave\nFile size                      : 981 MiB\nDuration                       : 1h 38mn\nOverall bit rate               : 1 399 Kbps\n\nVideo\nID                             : 0\nFormat                         : AVC\nFormat/Info                    : Advanced Video Codec\nFormat profile                 : &lt;a class=&quot;__cf_email__&quot; href=&quot;/cdn-cgi/l/email-protection&quot; data-cfemail=&quot;a4e9c5cdcae4e8918a95&quot;&gt;[email&amp;#160;protected]&lt;/a&gt;&lt;script cf-hash='f9e31' type=&quot;text/javascript&quot;&gt;\n/* &lt;![CDATA[ */!function(){try{var t=&quot;currentScript&quot;in document?document.currentScript:function(){for(var t=document.getElementsByTagName(&quot;script&quot;),e=t.length;e--;)if(t[e].getAttribute(&quot;cf-hash&quot;))return t[e]}();if(t&amp;&amp;t.previousSibling){var e,r,n,i,c=t.previousSibling,a=c.getAttribute(&quot;data-cfemail&quot;);if(a){for(e=&quot;&quot;,r=parseInt(a.substr(0,2),16),n=2;a.length-n;n+=2)i=parseInt(a.substr(n,2),16)^r,e+=String.fromCharCode(i);e=document.createTextNode(e),c.parentNode.replaceChild(e,c)}}}catch(u){}}();/* ]]&gt; */&lt;/script&gt;\nFormat settings, CABAC         : Yes\nFormat settings, ReFrames      : 1 frame\nCodec ID                       : H264\nDuration                       : 1h 38mn\nBit rate                       : 1 198 Kbps\nWidth                          : 1 024 pixels\nHeight                         : 576 pixels\nDisplay aspect ratio           : 16:9\nFrame rate                     : 25.000 fps\nColor space                    : YUV\nChroma subsampling             : 4:2:0\nBit depth                      : 8 bits\nScan type                      : Progressive\nBits/(Pixel*Frame)             : 0.081\nStream size                    : 840 MiB (86%)\n\nAudio\nID                             : 1\nFormat                         : MPEG Audio\nFormat version                 : Version 1\nFormat profile                 : Layer 3\nCodec ID                       : 55\nCodec ID/Hint                  : MP3\nDuration                       : 1h 38mn\nBit rate mode                  : Constant\nBit rate                       : 192 Kbps\nChannel(s)                     : 2 channels\nSampling rate                  : 44.1 KHz\nCompression mode               : Lossy\nStream size                    : 135 MiB (14%)\nAlignment                      : Split accross interleaves\nInterleave, duration           : 40 ms (1.00 video frame)\nInterleave, preload duration   : 370 ms\n\n &lt;a href=&quot;\nhttp://www.imdb.com/title/tt2389290&quot; rel=&quot;nofollow&quot; target=&quot;_NEW&quot;&gt;\nhttp://www.imdb.com/title/tt2389290&lt;/a&gt;\n\n\nA family heading toward their holiday destination are encouraged to take a shorter route by their GPS navigational system. During their journey they suddenly find themselves stranded. They are lost in the woods, away from any civilization with no fuel and no way of contacting the outside world. Will they reach their destination?","torrent":{"xt":"urn:btih:9c91eb81ebe4b418df8ef7f906b20dc8f1b9cd73","amp;dn":"The.Navigator.2014.Screener","amp;tr":["udp%3A%2F%2Ftracker.openbittorrent.com%3A80","udp%3A%2F%2Fopen.demonii.com%3A1337","udp%3A%2F%2Ftracker.coppersurfer.tk%3A6969","udp%3A%2F%2Fexodus.desync.com%3A6969"],"infoHash":"9c91eb81ebe4b418df8ef7f906b20dc8f1b9cd73","infoHashBuffer":{"type":"Buffer","data":[156,145,235,129,235,228,180,24,223,142,247,249,6,178,13,200,241,185,205,115]},"announce":[],"urlList":[]}}